<svg version="1.1" id="Calque_1" x="0" y="0" viewBox="0 0 27 7.3" xml:space="preserve"><g><path d="M5.4 7.3l-.7-2H1.9l-.7 2H0L2.7.1H4l2.7 7.2H5.4zm-1-3l-.7-2c0-.1-.1-.3-.2-.6s-.2-.5-.2-.6c-.1.4-.2.8-.4 1.3l-.6 1.9h2.1zM13.1.1v4.6c0 .5-.1 1-.3 1.4-.2.4-.6.7-1 .9-.4.2-.9.3-1.5.3-.9 0-1.6-.2-2.1-.7s-.7-1.1-.7-1.9V.1h1.2v4.5c0 .6.1 1 .4 1.3s.7.4 1.3.4c1.1 0 1.7-.6 1.7-1.7V.1h1zM17.4 7.3h-1.2V1.1h-2.1v-1h5.4v1h-2.1v6.2zM27 3.7c0 1.2-.3 2.1-.9 2.7-.6.6-1.4 1-2.5 1s-1.9-.3-2.5-1c-.6-.6-.9-1.5-.9-2.7s.3-2.1.9-2.7c.6-.7 1.5-1 2.5-1 1.1 0 1.9.3 2.5 1s.9 1.5.9 2.7zm-5.5 0c0 .9.2 1.5.5 2 .4.5.9.7 1.6.7.7 0 1.2-.2 1.6-.7.4-.4.5-1.1.5-2 0-.9-.2-1.5-.5-2s-.9-.7-1.6-.7c-.7 0-1.2.2-1.6.7-.3.4-.5 1.1-.5 2z"/></g></svg>