<svg viewBox="0 0 16 14.258"><path d="M14.238 8.891s-1.763 2.563-1.763 3.525a1.762 1.762 0 103.524 0c.001-.962-1.761-3.525-1.761-3.525zm-.24-2.884L8.23.24A1.278 1.278 0 007.589 0a.91.91 0 00-.641.24L4.626 2.563 2.223.16a.487.487 0 00-.641 0L1.021.8a.487.487 0 000 .641l2.4 2.4-2.64 2.567a2.659 2.659 0 000 3.765l3.2 3.284a2.6 2.6 0 001.922.8 2.6 2.6 0 001.922-.8l6.168-6.168a.973.973 0 00.004-1.281zm-3.284 2H1.822a.429.429 0 01.24-.32l.32-.4 2.244-2.241 1.6 1.6a.973.973 0 001.282 0 .893.893 0 000-1.282l-1.6-1.6 1.6-1.6 4.487 4.484-1.282 1.362z"/></svg>