<svg viewBox="0 0 16 14.222"><path d="M12.444 6.717v6.172a1.333 1.333 0 01-1.333 1.333H1.333A1.333 1.333 0 010 12.889V3.111a1.333 1.333 0 011.333-1.333h9.444a.333.333 0 01.236.569l-.667.667a.333.333 0 01-.236.1H1.5a.167.167 0 00-.167.167v9.444a.167.167 0 00.167.167h9.444a.167.167 0 00.167-.167V7.384a.333.333 0 01.1-.236l.667-.667a.333.333 0 01.569.236zM15.667 0h-3.778a.334.334 0 00-.236.569l1.339 1.339-7.561 7.561a.333.333 0 000 .471l.629.629a.333.333 0 00.471 0l7.561-7.561 1.339 1.339A.334.334 0 0016 4.111V.333A.333.333 0 0015.667 0z"/></svg>