<svg viewBox="0 0 512 512"><path d="M506 114H134a6 6 0 01-6-6V84a6 6 0 016-6h372a6 6 0 016 6v24a6 6 0 01-6 6zm6 154v-24a6 6 0 00-6-6H134a6 6 0 00-6 6v24a6 6 0 006 6h372a6 6 0 006-6zm0 160v-24a6 6 0 00-6-6H134a6 6 0 00-6 6v24a6 6 0 006 6h372a6 6 0 006-6zM48 60c-19.882 0-36 16.118-36 36s16.118 36 36 36 36-16.118 36-36-16.118-36-36-36zm0 160c-19.882 0-36 16.118-36 36s16.118 36 36 36 36-16.118 36-36-16.118-36-36-36zm0 160c-19.882 0-36 16.118-36 36s16.118 36 36 36 36-16.118 36-36-16.118-36-36-36z"/></svg>