<svg viewBox="0 0 512 512"><path d="M362.9 0C396 0 429 12.6 454.2 37.8c50.4 50.4 50.4 132.3 0 182.7l-262 262c-39.3 39.3-103.3 39.3-142.7 0-39.3-39.3-39.3-103.3 0-142.7l222.6-222.6c28.3-28.3 74.3-28.3 102.6 0 28.3 28.3 28.3 74.3 0 102.6L204.5 390.2c-4.7 4.7-12.3 4.7-17 0l-5.7-5.7c-4.7-4.7-4.7-12.3 0-17l170.3-170.3c15.8-15.8 15.8-41.6 0-57.4-15.8-15.8-41.6-15.8-57.4 0L72.1 362.5c-26.9 26.9-26.9 70.5 0 97.4 26.9 26.9 70.5 26.8 97.4 0l262.1-262.1c37.9-37.9 37.9-99.5 0-137.4-37.9-37.9-99.5-37.9-137.4 0L76.4 278.1c-4.7 4.7-12.3 4.7-17 0l-5.7-5.7c-4.7-4.7-4.7-12.3 0-17L271.6 37.8C296.7 12.6 329.8 0 362.9 0z"/></svg>