<svg viewBox="0 0 24 24"><g data-name="Calque 2"><path d="M23.21 4.66A5.46 5.46 0 0022 2 5.55 5.55 0 0019.34.79 40.59 40.59 0 0012.13 0h-.78A35.44 35.44 0 004 1a4.16 4.16 0 00-1.66.73 5.09 5.09 0 00-1.5 3A40.93 40.93 0 000 11.91v.57C0 13 0 13.51.07 14c0 .26 0 .51.06.77A36 36 0 001 20.05a4 4 0 001 2 4.08 4.08 0 002 1 36.79 36.79 0 005.32.83l.69.05c.52 0 1 .05 1.58.06h.56a40.82 40.82 0 007.24-.79 5 5 0 003-1.49 4.29 4.29 0 00.74-1.67 35.44 35.44 0 00.93-7.4v-.78a40.59 40.59 0 00-.85-7.2z" fill="#ff1a66"/><g style="isolation:isolate" fill="#fff"><path d="M12.68 12a4.67 4.67 0 01-1 3.25 3.79 3.79 0 01-3 1.16 3.8 3.8 0 01-3-1.15 4.74 4.74 0 01-1-3.27 4.63 4.63 0 011-3.26 3.83 3.83 0 013-1.14 3.77 3.77 0 013 1.16 4.64 4.64 0 011 3.25zm-6.54 0a3.84 3.84 0 00.64 2.4 2.25 2.25 0 001.89.81 2.26 2.26 0 001.88-.8 3.83 3.83 0 00.64-2.41 3.85 3.85 0 00-.63-2.39 2.22 2.22 0 00-1.88-.82 2.26 2.26 0 00-1.9.82A3.78 3.78 0 006.14 12zM15.91 16.29h-1.39V7.73h4.83v1.18h-3.44v2.68h3.22v1.19h-3.22z"/></g></g></svg>