<svg viewBox="0 0 24.06 23.99"><g data-name="Calque 2"><g data-name="Calque 1"><path d="M23.21 4.66A5.4 5.4 0 0022 2 5.58 5.58 0 0019.34.79 40.59 40.59 0 0012.13 0h-.78A35.72 35.72 0 004 1a4.2 4.2 0 00-1.66.73 5.13 5.13 0 00-1.5 3A41.26 41.26 0 000 11.91v.57A10.83 10.83 0 00.07 14a3.34 3.34 0 00.06.77A36.34 36.34 0 001 20.05a4 4 0 001 2 4.09 4.09 0 002 1 36.79 36.79 0 005.32.83l.69.05c.52 0 1 .05 1.58.06h.56a40.92 40.92 0 007.24-.79 5 5 0 003-1.49 4.33 4.33 0 00.74-1.71 35.52 35.52 0 00.93-7.4v-.78a40.55 40.55 0 00-.85-7.16z" fill="#757575" data-name="Calque 4"/><path data-name="Tracé 898" d="M14.45 13.31c-.79 0-1.16.44-2.45.44s-1.66-.44-2.45-.44A3.7 3.7 0 005.87 17v.7A1.32 1.32 0 007.19 19h9.62a1.32 1.32 0 001.32-1.31V17a3.69 3.69 0 00-3.68-3.69zm2.36 4.38H7.19V17a2.36 2.36 0 012.36-2.36 10.76 10.76 0 002.45.43 10.76 10.76 0 002.45-.43A2.36 2.36 0 0116.81 17zM12 12.88a3.94 3.94 0 10-3.94-3.94A4 4 0 0012 12.88zm0-6.57a2.63 2.63 0 11-2.63 2.63A2.65 2.65 0 0112 6.31z" fill="#fff"/></g></g></svg>