<svg viewBox="0 0 24 24"><g data-name="Calque 2"><g data-name="Calque 3"><path d="M23.21 4.66A5.46 5.46 0 0022 2 5.55 5.55 0 0019.34.79 40.59 40.59 0 0012.13 0h-.78A35.44 35.44 0 004 1a4.16 4.16 0 00-1.66.73 5.09 5.09 0 00-1.5 3A40.93 40.93 0 000 11.91v.57C0 13 0 13.51.07 14c0 .26 0 .51.06.77A36 36 0 001 20.05a4 4 0 001 2 4.08 4.08 0 002 1 36.79 36.79 0 005.32.83l.69.05c.52 0 1 .05 1.58.06h.56a40.82 40.82 0 007.24-.79 5 5 0 003-1.49 4.29 4.29 0 00.74-1.67 35.44 35.44 0 00.93-7.4v-.78a40.59 40.59 0 00-.85-7.2z" fill="#19b8d2"/><g style="isolation:isolate" fill="#fff"><path d="M12.07 10.18a2.52 2.52 0 01-.88 2.06 3.92 3.92 0 01-2.5.71H7.8v3.21H6.4V7.59h2.46a3.74 3.74 0 012.41.66 2.35 2.35 0 01.8 1.93zM7.8 11.77h.74a2.65 2.65 0 001.58-.37 1.36 1.36 0 00.51-1.17 1.31 1.31 0 00-.46-1.1 2.15 2.15 0 00-1.4-.37h-1zM16.92 9.56a3.17 3.17 0 01.68.06l-.13 1.28a2.48 2.48 0 00-.61-.07 1.76 1.76 0 00-1.34.54 2 2 0 00-.51 1.4v3.39h-1.38V9.68h1.08l.18 1.14H15a2.67 2.67 0 01.84-.92 2 2 0 011.08-.34z"/></g></g></g></svg>