<svg viewBox="0 0 24 24"><g data-name="Calque 2"><g data-name="Calque 1"><path d="M23.21 4.66A5.46 5.46 0 0022 2 5.55 5.55 0 0019.34.79 40.59 40.59 0 0012.13 0h-.78A35.44 35.44 0 004 1a4.16 4.16 0 00-1.66.73 5.09 5.09 0 00-1.5 3A40.93 40.93 0 000 11.91v.57C0 13 0 13.51.07 14c0 .26 0 .51.06.77A36 36 0 001 20.05a4 4 0 001 2 4.08 4.08 0 002 1 36.79 36.79 0 005.32.83l.69.05c.52 0 1 .05 1.58.06h.56a40.82 40.82 0 007.24-.79 5 5 0 003-1.49 4.29 4.29 0 00.74-1.67 35.44 35.44 0 00.93-7.4v-.78a40.59 40.59 0 00-.85-7.2z" fill="#ff8057"/><g style="isolation:isolate" fill="#fff"><path d="M7.05 12.74v3.42h-1.4V7.59h2.42a4 4 0 012.46.62 2.24 2.24 0 01.79 1.88 2.35 2.35 0 01-1.66 2.28l2.42 3.79h-1.59l-2.06-3.42zm0-1.16H8a2.22 2.22 0 001.42-.37 1.29 1.29 0 00.44-1.08 1.17 1.17 0 00-.47-1A2.63 2.63 0 008 8.77h-.95zM13.32 16.16V7.59h1.4V15h3.63v1.2z"/></g></g></g></svg>