<svg viewBox="0 0 24 24"><path d="M1 20c-.6-2.6-.9-5.2-1-7.8v-.3C0 9.5.3 7 .8 4.6 1.3 2.3 2.3 1.1 4.5.7c5-.9 10-.9 15 0 2.2.4 3.2 1.6 3.7 3.9.5 2.4.8 4.8.8 7.3v.3c0 2.6-.3 5.2-1 7.8-.3 1.7-1.6 2.9-3.3 3.2-2.1.4-4.2.6-6.3.7h-3c-2.1-.1-4.2-.3-6.3-.7C2.6 23 1.3 21.7 1 20z" fill="#4e0cb2"/><g fill="#fff"><path d="M10.8 16.3H6.1V7.7h4.8v.9H7v2.8h3.6v.9H7v3.2h3.8v.8zM17 16.3v-4.2c0-.5-.1-.9-.4-1.2s-.6-.4-1.1-.4c-.7 0-1.2.2-1.5.5s-.5 1-.5 1.8v3.4h-1V9.9h.8l.2.9c.2-.3.5-.6.8-.7s.8-.3 1.2-.3c.8 0 1.4.2 1.7.6s.6 1 .6 1.8v4.2H17z"/></g></svg>