<svg viewBox="0 0 24 24"><g data-name="Calque 2"><g data-name="Calque 4"><path d="M23.21 4.66A5.46 5.46 0 0022 2 5.55 5.55 0 0019.34.79 40.59 40.59 0 0012.13 0h-.78A35.44 35.44 0 004 1a4.16 4.16 0 00-1.66.73 5.09 5.09 0 00-1.5 3A40.93 40.93 0 000 11.91v.57C0 13 0 13.51.07 14c0 .26 0 .51.06.77A36 36 0 001 20.05a4 4 0 001 2 4.08 4.08 0 002 1 36.79 36.79 0 005.32.83l.69.05c.52 0 1 .05 1.58.06h.56a40.82 40.82 0 007.24-.79 5 5 0 003-1.49 4.29 4.29 0 00.74-1.67 35.44 35.44 0 00.93-7.4v-.78a40.59 40.59 0 00-.85-7.2z" fill="#ffc03f"/><g style="isolation:isolate" fill="#fff"><path d="M11.05 16.19l-.86-2.38H6.92l-.84 2.38H4.6l3.21-8.6h1.52l3.21 8.6zm-1.23-3.58L9 10.27c-.06-.15-.14-.4-.24-.73S8.6 9 8.56 8.8a12.6 12.6 0 01-.46 1.57l-.77 2.24zM16.81 16.31a2.27 2.27 0 01-1.91-.89h-.08c0 .55.08.88.08 1v2.66h-1.38V9.71h1.11c0 .12.1.41.2.87h.07a2.15 2.15 0 011.93-1 2.26 2.26 0 011.89.88 4 4 0 01.68 2.47 4 4 0 01-.69 2.48 2.28 2.28 0 01-1.9.9zm-.34-5.59a1.42 1.42 0 00-1.19.48 2.44 2.44 0 00-.38 1.54v.2a3 3 0 00.37 1.71 1.39 1.39 0 001.23.53 1.25 1.25 0 001.1-.58 3 3 0 00.4-1.67 2.87 2.87 0 00-.39-1.65 1.28 1.28 0 00-1.14-.56z"/></g></g></g></svg>